<?xml version="1.0" encoding="UTF-8" standalone="no"?>
<!-- Created with Inkscape (http://www.inkscape.org/) -->

<svg
   width="512mm"
   height="512mm"
   viewBox="0 0 512 512"
   version="1.1"
   id="svg5"
   xmlns="http://www.w3.org/2000/svg"
   xmlns:svg="http://www.w3.org/2000/svg">
  <defs
     id="defs2" />
  <path
     id="path8219-3-6-6"
     style="display:inline;fill:#030100;stroke:none;stroke-width:0.587962;stroke-opacity:1;fill-opacity:1"
     d="m 154.11979,424.00412 a 6.6145782,6.6145838 30 0 0 9.03569,-2.42111 l 20.50521,-35.51607 a 6.6145811,6.6145838 30 0 0 -2.4211,-9.03568 6.6145811,6.6145838 30 0 0 -9.0357,2.4211 l -20.50521,35.51607 a 6.6145782,6.6145838 30 0 0 2.42111,9.03569 z" />
  <path
     id="path8219-3-62"
     style="display:inline;fill:#030100;stroke:none;stroke-width:0.587962;stroke-opacity:1;fill-opacity:1"
     d="m 348.81328,424.22885 a 6.6145838,6.6145782 60 0 1 -9.03569,-2.42111 l -20.50521,-35.51607 a 6.6145838,6.6145811 60 0 1 2.4211,-9.03568 6.6145838,6.6145811 60 0 1 9.0357,2.4211 l 20.50521,35.51607 a 6.6145838,6.6145782 60 0 1 -2.42111,9.03569 z" />
  <path
     id="path8219-0"
     style="display:inline;fill:#030100;stroke:none;stroke-width:0.587962;stroke-opacity:1;fill-opacity:1"
     d="M 251.35417,451.11458 A 6.6145782,6.6145838 0 0 1 244.73959,444.5 v -41.01042 a 6.6145811,6.6145838 0 0 1 6.61458,-6.61458 6.6145811,6.6145838 0 0 1 6.61459,6.61458 V 444.5 a 6.6145782,6.6145838 0 0 1 -6.61459,6.61458 z" />
  <path
     id="path8219-3-6"
     style="display:inline;fill:#030100;stroke:none;stroke-width:0.587962;stroke-opacity:1;fill-opacity:1"
     d="m 154.11978,86.641717 a 6.6145838,6.6145782 60 0 1 9.03569,2.42111 l 20.50521,35.516073 a 6.6145838,6.6145811 60 0 1 -2.4211,9.03568 6.6145838,6.6145811 60 0 1 -9.0357,-2.4211 L 151.69867,95.67741 a 6.6145838,6.6145782 60 0 1 2.42111,-9.035693 z" />
  <path
     id="path8219-3"
     style="display:inline;fill:#030100;stroke:none;stroke-width:0.587962;stroke-opacity:1;fill-opacity:1"
     d="m 348.81327,86.416988 a 6.6145782,6.6145838 30 0 0 -9.03569,2.421107 l -20.50521,35.516075 a 6.6145811,6.6145838 30 0 0 2.4211,9.03568 6.6145811,6.6145838 30 0 0 9.0357,-2.4211 l 20.50521,-35.51607 a 6.6145782,6.6145838 30 0 0 -2.42111,-9.035692 z" />
  <path
     id="path8219"
     style="display:inline;fill:#030100;stroke:none;stroke-width:0.587962;stroke-opacity:1;fill-opacity:1"
     d="m 251.35416,60.854167 a 6.6145782,6.6145838 0 0 0 -6.61458,6.614583 v 41.01042 a 6.6145811,6.6145838 0 0 0 6.61458,6.61458 6.6145811,6.6145838 0 0 0 6.61459,-6.61458 V 67.46875 a 6.6145782,6.6145838 0 0 0 -6.61459,-6.614583 z" />
  <path
     id="rect3522-35"
     style="fill:#030100;stroke:none;stroke-width:2;fill-opacity:1"
     d="m 1030,670 20,145 230,0.41602 v 0.41601 a 158.16793,184.99996 0 0 1 129.7891,94.58399 H 1320 a 60.000014,72.499998 0 0 0 -60,72.5 60.000014,72.499998 0 0 0 60,72.49998 h 102.6465 A 158.16793,184.99996 0 0 1 1280,1185 v 0.416 l -155,-0.416 20,145 135,0.416 c 148.6535,0 272.0325,-118.9395 295.832,-275.0195 L 1790,1055 l 60,-145 -281.2988,0.41016 C 1533.0847,771.90363 1417.3187,670.41602 1280,670.41602 Z"
     transform="scale(0.26458333)" />
  <path
     id="rect3522"
     style="fill:#030100;stroke:none;stroke-width:2;fill-opacity:1"
     d="M 620,605 C 482.67932,605 366.91159,706.49042 331.29688,845 H 155 L 95,990 H 324.17188 C 347.97875,1146.0703 471.35271,1265 620,1265 H 920 L 900,1120 H 620 v -0.416 A 158.16793,184.99996 0 0 1 477.35352,990 H 580 A 60.000014,72.499998 0 0 0 640,917.5 60.000014,72.499998 0 0 0 580,845 H 490.21094 A 158.16793,184.99996 0 0 1 620,750.41602 V 750 H 830 L 810,605 Z"
     transform="scale(0.26458333)" />
</svg>
