<svg xmlns="http://www.w3.org/2000/svg" width="512" height="512" fill="none" viewBox="0 0 512 512">
  <path fill="#030100" d="M154.12 424.004a6.617 6.617 0 0 0 9.035-2.421l20.506-35.516a6.613 6.613 0 1 0-11.457-6.615l-20.505 35.516a6.602 6.602 0 0 0-.661 5.02 6.626 6.626 0 0 0 3.082 4.016Zm194.693.225a6.606 6.606 0 0 1-5.019.661 6.616 6.616 0 0 1-4.016-3.082l-20.506-35.516a6.617 6.617 0 0 1 7.441-9.697 6.611 6.611 0 0 1 4.016 3.082l20.505 35.516a6.596 6.596 0 0 1 .661 5.019 6.609 6.609 0 0 1-3.082 4.017Zm-97.459 26.886a6.612 6.612 0 0 1-6.614-6.615v-41.01a6.614 6.614 0 1 1 13.229 0v41.01a6.6 6.6 0 0 1-.504 2.531 6.605 6.605 0 0 1-6.111 4.084ZM154.12 86.642a6.61 6.61 0 0 1 7.334.48 6.61 6.61 0 0 1 1.701 1.94l20.506 35.517a6.616 6.616 0 0 1-4.865 9.865 6.602 6.602 0 0 1-4.89-1.31 6.594 6.594 0 0 1-1.702-1.941l-20.505-35.516a6.596 6.596 0 0 1-.661-5.019 6.623 6.623 0 0 1 3.082-4.016Zm194.693-.225a6.61 6.61 0 0 0-7.334.48 6.61 6.61 0 0 0-1.701 1.941l-20.506 35.516a6.615 6.615 0 0 0 11.457 6.615l20.505-35.516a6.596 6.596 0 0 0 .661-5.02 6.609 6.609 0 0 0-3.082-4.016Zm-97.459-25.563a6.614 6.614 0 0 0-6.614 6.615v41.01a6.611 6.611 0 0 0 6.614 6.615 6.6 6.6 0 0 0 2.531-.504 6.589 6.589 0 0 0 2.146-1.434 6.589 6.589 0 0 0 1.434-2.146 6.6 6.6 0 0 0 .504-2.531v-41.01a6.604 6.604 0 0 0-1.938-4.677 6.607 6.607 0 0 0-4.677-1.938Zm21.167 116.417 5.292 38.364 60.854.11c7.066.436 13.922 3.07 19.927 7.447 6.006 4.376 10.964 10.462 14.413 17.689H349.25c-4.21 0-8.248 2.021-11.225 5.618-2.977 3.598-4.65 8.477-4.65 13.564 0 5.088 1.673 9.967 4.65 13.564 2.977 3.597 7.015 5.618 11.225 5.618h27.159c-2.548 9.538-7.529 17.935-14.276 24.064-6.747 6.129-14.936 9.806-23.466 10.332l-41.011-.11 5.292 38.365 35.719.11c39.331 0 71.975-31.47 78.272-72.766l56.665-.105 15.875-38.364-74.427.108c-9.423-36.646-40.053-63.498-76.385-63.498l-66.146-.11Zm-108.479-17.198c-36.333 0-66.963 26.853-76.386 63.5H41.01l-15.875 38.365H85.77c6.3 41.293 38.942 72.76 78.272 72.76h79.375l-5.292-38.365h-74.083c-8.542-.333-16.72-4.203-23.467-10.332-6.747-6.129-11.728-14.526-14.275-24.063h27.158c4.211 0 8.248-2.021 11.226-5.619 2.977-3.597 4.649-8.476 4.649-13.564 0-5.087-1.672-9.966-4.649-13.564-2.978-3.597-7.015-5.618-11.226-5.618h-23.756c3.448-7.227 8.407-13.313 14.412-17.689 6.006-4.377 12.862-7.011 19.928-7.446h55.562l-5.292-38.365h-50.27Z"/>
  <mask id="a" width="220" height="175" x="24" y="160" maskUnits="userSpaceOnUse" style="mask-type:alpha">
    <path fill="#030100" d="M163.733 160c-36.549 0-67.362 26.91-76.84 63.636H39.968L24 262.083h60.996C91.332 303.466 124.169 335 163.733 335h79.847l-5.323-38.447h-74.524v-.11c-8.582-.527-16.819-4.102-23.606-10.244-6.787-6.143-11.798-14.558-14.361-24.116h27.32c4.236 0 8.298-2.025 11.293-5.63 2.994-3.605 4.677-8.495 4.677-13.593 0-5.099-1.683-9.988-4.677-13.593-2.995-3.605-7.057-5.631-11.293-5.631h-23.898c3.469-7.242 8.457-13.341 14.499-17.727 6.041-4.386 12.938-6.915 20.046-7.352v-.11h55.893L214.303 160h-50.57Z"/>
  </mask>
  <g mask="url(#a)">
    <path fill="#C2C2C2" d="M159 173.5a5.5 5.5 0 0 1 5.5-5.5H218v11h-53.5a5.5 5.5 0 0 1-5.5-5.5Z"/>
  </g>
  <path fill="#C2C2C2" stroke="#C2C2C2" stroke-width="3" d="M343.732 188H293.74a3.74 3.74 0 0 0 0 7.481h49.992c12.452 0 23.458 5.741 33.216 14.607 1.677 1.523 4.303 1.411 5.753-.329 1.295-1.554 1.173-3.853-.339-5.197C370.543 194.057 357.47 188 343.732 188ZM164.978 313h28.282a3.74 3.74 0 0 0 0-7.481h-28.282c-12.45 0-23.218-5.74-32.929-14.603-1.674-1.527-4.3-1.415-5.75.325-1.295 1.554-1.173 3.853.337 5.199C138.42 306.944 151.241 313 164.978 313Z"/>
  <rect width="110" height="9" x="354" y="251" fill="#C2C2C2" rx="4.5"/>
</svg>
